<?xml version="1.0" encoding="UTF-8"?>
<svg xmlns="http://www.w3.org/2000/svg" xmlns:xlink="http://www.w3.org/1999/xlink" width="96pt" height="96pt" viewBox="0 0 96 96" version="1.1">
<g id="surface1">
<rect x="0" y="0" width="96" height="96" style="fill:rgb(100%,100%,100%);fill-opacity:1;stroke:none;"/>
<path style=" stroke:none;fill-rule:nonzero;fill:rgb(4.705882%,82.745098%,92.941176%);fill-opacity:1;" d="M 58.890625 25.125 C 58.890625 26.839844 58.03125 28.71875 56.320312 30.769531 C 54.605469 32.820312 52.007812 34.484375 48.527344 35.765625 C 45.042969 37.039062 41.664062 37.675781 38.390625 37.675781 C 35.109375 37.675781 32.511719 37.253906 30.597656 36.414062 C 26.363281 42.632812 23.605469 46.382812 22.324219 47.664062 C 18.699219 51.296875 14.363281 53.117188 9.320312 53.117188 C 6.464844 53.117188 4.320312 52.449219 2.886719 51.121094 C 1.460938 49.792969 0.75 48.066406 0.75 45.945312 C 0.75 43.023438 1.925781 40.265625 4.277344 37.675781 C 6.863281 34.816406 10.121094 33.386719 14.054688 33.386719 C 15.671875 33.386719 17.035156 33.757812 18.148438 34.503906 C 19.253906 35.242188 19.804688 36.363281 19.804688 37.878906 C 19.804688 38.886719 19.230469 40.097656 18.085938 41.515625 C 16.949219 42.925781 16.246094 43.628906 15.972656 43.628906 C 15.910156 43.628906 15.878906 43.5625 15.878906 43.425781 C 15.878906 43.289062 15.925781 43.15625 16.023438 43.027344 C 17.101562 41.445312 17.644531 39.988281 17.644531 38.660156 C 17.644531 37.328125 17.230469 36.304688 16.40625 35.585938 C 15.582031 34.863281 14.566406 34.503906 13.355469 34.503906 C 10.53125 34.503906 8.03125 35.789062 5.863281 38.359375 C 3.695312 40.929688 2.609375 43.527344 2.609375 46.152344 C 2.609375 47.832031 3.136719 49.191406 4.195312 50.234375 C 5.257812 51.273438 6.902344 51.792969 9.117188 51.792969 C 13.25 51.792969 16.792969 50.402344 19.757812 47.617188 C 21.46875 46 23.203125 43.644531 24.957031 40.554688 L 29.339844 32.628906 C 31.492188 29.171875 33.996094 24.03125 36.855469 17.199219 C 36.550781 17.199219 36.246094 17.199219 35.941406 17.199219 C 31.402344 17.199219 26.847656 17.699219 22.277344 18.691406 C 17.707031 19.683594 14.246094 21.105469 11.890625 22.953125 C 10.882812 23.730469 10.378906 24.484375 10.378906 25.222656 C 10.378906 25.957031 10.773438 26.554688 11.566406 27.011719 C 12.351562 27.46875 13.285156 27.695312 14.363281 27.695312 C 15.4375 27.695312 16.769531 27.484375 18.363281 27.058594 C 19.964844 26.644531 21.167969 26.082031 21.976562 25.378906 C 22.3125 25.105469 22.550781 24.96875 22.6875 24.96875 C 22.949219 24.96875 23 25.105469 22.832031 25.378906 C 21.621094 26.785156 19.789062 27.84375 17.332031 28.546875 C 15.816406 28.988281 14.324219 29.207031 12.851562 29.207031 C 11.371094 29.207031 10.160156 28.878906 9.214844 28.222656 C 8.277344 27.566406 7.808594 26.675781 7.808594 25.546875 C 7.808594 24.425781 8.414062 23.292969 9.621094 22.148438 C 11.902344 19.929688 15.984375 18.28125 21.871094 17.199219 C 26.039062 16.464844 30.832031 16.097656 36.242188 16.097656 C 36.683594 16.097656 37.140625 16.097656 37.613281 16.097656 C 38.347656 15.457031 39.019531 15.136719 39.628906 15.136719 C 40.230469 15.136719 40.53125 15.371094 40.53125 15.84375 C 40.53125 15.941406 40.511719 16.054688 40.480469 16.191406 C 45.691406 16.5625 49.910156 17.4375 53.136719 18.820312 C 56.972656 20.429688 58.890625 22.53125 58.890625 25.125 M 56.523438 24.621094 C 56.523438 22.5 54.804688 20.765625 51.371094 19.421875 C 48.386719 18.246094 44.640625 17.542969 40.132812 17.308594 L 38.511719 22.351562 C 37.238281 25.507812 34.785156 29.910156 31.152344 35.558594 C 31.488281 35.730469 32.058594 35.914062 32.867188 36.113281 C 34.214844 36.351562 35.253906 36.472656 35.992188 36.472656 C 38.550781 36.472656 41.492188 35.941406 44.816406 34.875 C 48.144531 33.820312 50.933594 32.273438 53.171875 30.242188 C 55.40625 28.207031 56.523438 26.335938 56.523438 24.621094 Z M 91.769531 26.074219 C 90.527344 26.578125 89.464844 26.832031 88.574219 26.832031 C 87.679688 26.832031 87.230469 26.648438 87.230469 26.277344 C 87.230469 26.046875 87.726562 25.914062 88.71875 25.882812 C 89.710938 25.84375 90.429688 25.722656 90.867188 25.523438 C 92.140625 24.851562 92.777344 23.855469 92.777344 22.542969 C 92.777344 21.871094 92.59375 21.167969 92.226562 20.429688 C 91.152344 18.519531 88.546875 17.5625 84.410156 17.5625 C 82.023438 17.5625 79.636719 17.921875 77.253906 18.640625 C 74.859375 19.363281 72.859375 20.472656 71.25 21.96875 C 69.632812 23.464844 68.824219 24.855469 68.824219 26.132812 C 68.824219 28.078125 70.757812 29.507812 74.621094 30.421875 L 80.578125 31.527344 C 82.964844 31.964844 84.746094 32.570312 85.921875 33.339844 C 87.464844 34.285156 88.238281 35.628906 88.238281 37.375 C 88.238281 38.078125 88.125 38.835938 87.890625 39.644531 C 86.808594 43.277344 84.035156 46.050781 79.570312 47.964844 C 75.839844 49.613281 71.433594 50.4375 66.351562 50.4375 C 64.910156 50.4375 63.648438 50.371094 62.566406 50.234375 C 63.648438 50.84375 65.0625 51.363281 66.804688 51.792969 C 66.941406 51.835938 67.011719 51.902344 67.011719 52 C 67.011719 52.304688 66.65625 52.453125 65.953125 52.453125 C 64.578125 52.453125 62.859375 51.628906 60.800781 49.980469 C 58.015625 49.550781 55.933594 48.777344 54.558594 47.664062 C 53.679688 46.960938 52.871094 45.917969 52.132812 44.542969 C 51.394531 43.15625 51.027344 41.914062 51.027344 40.808594 C 51.027344 39.695312 51.246094 38.769531 51.675781 38.035156 C 52.683594 36.25 53.960938 35.355469 55.507812 35.355469 C 56.683594 35.355469 57.375 36.347656 57.585938 38.335938 C 58.046875 42.167969 58.363281 44.355469 58.53125 44.890625 C 59.035156 46.539062 59.898438 47.9375 61.113281 49.082031 C 62.523438 49.378906 64.050781 49.523438 65.703125 49.523438 C 69.328125 49.523438 72.890625 48.804688 76.386719 47.363281 C 79.886719 45.914062 82.40625 43.863281 83.953125 41.203125 C 84.59375 40.164062 84.914062 39.238281 84.914062 38.429688 C 84.914062 36.851562 83.515625 35.628906 80.722656 34.757812 L 71.847656 32.738281 C 70.03125 32.296875 68.578125 31.574219 67.492188 30.566406 C 66.394531 29.558594 65.84375 28.394531 65.84375 27.082031 C 65.84375 25.066406 67.105469 23.046875 69.628906 21.03125 C 71.550781 19.488281 73.894531 18.285156 76.664062 17.429688 C 79.441406 16.574219 82.167969 16.144531 84.839844 16.144531 C 87.515625 16.144531 89.722656 16.53125 91.46875 17.308594 C 93.71875 18.351562 94.84375 19.871094 94.84375 21.871094 C 94.84375 23.875 93.820312 25.273438 91.769531 26.074219 M 59.289062 48.578125 C 57.34375 46.421875 56.101562 43.480469 55.566406 39.75 C 55.261719 37.628906 54.972656 36.570312 54.703125 36.570312 C 54.4375 36.570312 54.1875 36.644531 53.945312 36.796875 C 53.714844 36.949219 53.476562 37.277344 53.238281 37.78125 C 53.003906 38.285156 52.890625 38.941406 52.890625 39.75 C 52.890625 42.335938 53.796875 44.554688 55.613281 46.402344 C 56.519531 47.347656 57.746094 48.074219 59.289062 48.578125 Z M 59.289062 48.578125 "/>
</g>
</svg>
